<?xml version="1.0" encoding="UTF-8" standalone="no"?><!DOCTYPE svg PUBLIC "-//W3C//DTD SVG 1.1//EN" "http://www.w3.org/Graphics/SVG/1.1/DTD/svg11.dtd"><svg width="100%" height="100%" viewBox="0 0 843 840" version="1.1" xmlns="http://www.w3.org/2000/svg" xmlns:xlink="http://www.w3.org/1999/xlink" xml:space="preserve" xmlns:serif="http://www.serif.com/" style="fill-rule:evenodd;clip-rule:evenodd;stroke-linejoin:round;stroke-miterlimit:2;"><path d="M421.434,0l29.705,264.329l123.187,-235.749l-67.787,257.211l200.029,-175.329l-156.124,215.354l249.858,-91.231l-223.376,144.413l265.942,5.19l-260.461,53.968l246.109,100.908l-262.367,-43.765l193.037,182.999l-228.84,-135.588l113.895,240.375l-164.408,-209.099l19.371,265.286l-77.77,-254.37l-77.77,254.37l19.37,-265.286l-164.407,209.099l113.895,-240.375l-228.84,135.588l193.037,-182.999l-262.368,43.765l246.109,-100.908l-260.46,-53.968l265.942,-5.19l-223.376,-144.413l249.858,91.231l-156.125,-215.354l200.03,175.329l-67.787,-257.211l123.186,235.749l29.706,-264.329Z" style="fill:url(#_Radial1);"/><defs><radialGradient id="_Radial1" cx="0" cy="0" r="1" gradientUnits="userSpaceOnUse" gradientTransform="matrix(421.534,-1.02748,-1.03007e-13,421.057,421.434,423.505)"><stop offset="0" style="stop-color:#fff;stop-opacity:1"/><stop offset="0.45" style="stop-color:#fff;stop-opacity:0.71"/><stop offset="1" style="stop-color:#fff;stop-opacity:0"/></radialGradient></defs></svg>