<?xml version="1.0" encoding="UTF-8" standalone="no"?><!DOCTYPE svg PUBLIC "-//W3C//DTD SVG 1.1//EN" "http://www.w3.org/Graphics/SVG/1.1/DTD/svg11.dtd"><svg width="100%" height="100%" viewBox="0 0 1064 1060" version="1.1" xmlns="http://www.w3.org/2000/svg" xmlns:xlink="http://www.w3.org/1999/xlink" xml:space="preserve" xmlns:serif="http://www.serif.com/" style="fill-rule:evenodd;clip-rule:evenodd;stroke-linejoin:round;stroke-miterlimit:2;"><path d="M576.53,0l105.007,19.629l-44.725,239.258l128.135,-206.945l90.824,56.236l-128.134,206.945l194.239,-146.683l64.376,85.249l-194.239,146.682l234.111,-66.61l29.234,102.748l-234.11,66.61l242.363,22.458l-9.857,106.37l-242.363,-22.459l217.884,108.494l-47.616,95.626l-217.884,-108.494l163.979,179.877l-78.945,71.967l-163.979,-179.876l87.927,226.966l-99.612,38.589l-87.927,-226.965l0,243.402l-106.825,-0l-0,-243.402l-87.927,226.965l-99.612,-38.589l87.927,-226.966l-163.979,179.876l-78.944,-71.967l163.978,-179.877l-217.884,108.494l-47.616,-95.626l217.884,-108.494l-242.363,22.459l-9.857,-106.37l242.364,-22.458l-234.111,-66.61l29.235,-102.748l234.11,66.61l-194.239,-146.682l64.376,-85.249l194.239,146.683l-128.134,-206.945l90.825,-56.236l128.134,206.945l-44.725,-239.258l105.007,-19.629l44.725,239.257l44.724,-239.257Z" style="fill:url(#_Radial1);"/><defs><radialGradient id="_Radial1" cx="0" cy="0" r="1" gradientUnits="userSpaceOnUse" gradientTransform="matrix(536.13,-1.30681,-1.3101e-13,535.525,531.806,530.277)"><stop offset="0" style="stop-color:#fff;stop-opacity:1"/><stop offset="0.58" style="stop-color:#fff;stop-opacity:0.31"/><stop offset="1" style="stop-color:#fff;stop-opacity:0"/></radialGradient></defs></svg>